<svg width="17" height="17" viewBox="0 0 17 17" fill="none" xmlns="http://www.w3.org/2000/svg">
<path d="M2.92942 14.2054C2.13651 13.4328 1.5409 12.5659 1.14258 11.6046C0.75171 10.6434 0.556274 9.65127 0.556274 8.62835C0.556275 7.60543 0.753571 6.61515 1.14816 5.65752C1.54648 4.69627 2.14023 3.83114 2.92942 3.06213C3.7186 2.29313 4.60458 1.71637 5.58734 1.33187C6.57754 0.947369 7.59567 0.753304 8.64171 0.749677C9.69148 0.749677 10.7077 0.941927 11.6905 1.32643C12.6807 1.71093 13.5723 2.2895 14.3652 3.06213L12.4778 4.90121C11.9492 4.38613 11.3536 3.998 10.691 3.73682C10.0321 3.47928 9.35087 3.35232 8.6473 3.35595C7.94745 3.35595 7.26436 3.48472 6.59802 3.74227C5.93912 3.99981 5.34537 4.38613 4.81677 4.90121C4.28444 5.41993 3.88426 5.9985 3.61623 6.63692C3.35193 7.27896 3.21792 7.94277 3.2142 8.62835C3.21792 9.31392 3.35193 9.97773 3.61623 10.6198C3.88426 11.2655 4.28444 11.8476 4.81677 12.3664C5.34537 12.8815 5.93912 13.2678 6.59802 13.5253C7.26064 13.7865 7.94187 13.9171 8.64171 13.9171C9.349 13.9171 10.0321 13.7883 10.691 13.5308C11.3536 13.2696 11.9492 12.8815 12.4778 12.3664L14.3652 14.2054C13.576 14.9745 12.6863 15.5512 11.6961 15.9357C10.7133 16.3202 9.69707 16.5125 8.6473 16.5125C7.59753 16.5125 6.57754 16.3202 5.58734 15.9357C4.60458 15.5512 3.7186 14.9745 2.92942 14.2054ZM9.30061 7.50749L16.8723 0.129395L16.9393 7.57278L9.30061 7.50749Z" fill="white"/>
</svg>
